# xmcd
#
# Track frame offsets:
#	150
#	17877
#	39218
#	61621
#	78776
#	96528
#	111255
#	128025
#	144542
#	163998
#	179440
#	201058
#	218270
#	239027
#	262717
#	280789
#
# Disc length: 3959 seconds
#
# Revision: 0
# Processed by: cddbd v1.5.1PL0 Copyright (c) Steve Scherf et al.
# Submitted via: MusicManager 7.0.6.0 
#
DISCID=d80f7510
DTITLE=Various Artist - Donna's Top 2004 - CD 2
DYEAR=1900
DGENRE=rock
TTITLE0=Franky Goes to Hollywood - Relax
TTITLE1=Genesis - Land of confusion
TTITLE2=Toto - Africa
TTITLE3=Cyndi Lauper - Girls just wanna have fun
TTITLE4=Human League - Don't you want me
TTITLE5=The Cardigans - Lovefool
TTITLE6=Hooverphonic - Mad about you
TTITLE7=The Cure - Close to me
TTITLE8=Oasis - Wonderwall
TTITLE9=Anouk - Nobody's wife
TTITLE10=K's Choice - Not an addict
TTITLE11=Krezip - I would stay
TTITLE12=The Scene - Blauw
TTITLE13=Gorky - Mia
TTITLE14=Therapy? - Diane
TTITLE15=Novastar - Wrong
EXTD=
EXTT0=
EXTT1=
EXTT2=
EXTT3=
EXTT4=
EXTT5=
EXTT6=
EXTT7=
EXTT8=
EXTT9=
EXTT10=
EXTT11=
EXTT12=
EXTT13=
EXTT14=
EXTT15=
PLAYORDER=
